<svg xmlns="http://www.w3.org/2000/svg" viewBox="0 0 800 800" width="800" height="800">
  <defs>
    <radialGradient id="bg" cx="50%" cy="40%" r="70%">
      <stop offset="0%" stop-color="#3d4f3e"/>
      <stop offset="100%" stop-color="#1a2419"/>
    </radialGradient>
    <radialGradient id="berry" cx="35%" cy="35%" r="60%">
      <stop offset="0%" stop-color="#5a3a18"/>
      <stop offset="100%" stop-color="#1d0f04"/>
    </radialGradient>
    <radialGradient id="berryHi" cx="35%" cy="35%" r="40%">
      <stop offset="0%" stop-color="#8a5a2c"/>
      <stop offset="100%" stop-color="#3a200a"/>
    </radialGradient>
  </defs>
  <rect width="800" height="800" fill="url(#bg)"/>

  <!-- Vines -->
  <g stroke="#3d3520" stroke-width="2" fill="none" opacity="0.5">
    <path d="M 100 200 Q 250 150 400 250 T 700 200"/>
    <path d="M 80 600 Q 200 550 350 620 T 720 580"/>
    <path d="M 50 400 Q 200 350 350 420 T 700 380"/>
  </g>

  <!-- Pepper berries cluster -->
  <g transform="translate(400 400)">
    <!-- Stem -->
    <path d="M 0 -180 L -10 -160 L 10 -140 L -5 -100 L 5 -60" stroke="#5a4a2a" stroke-width="3" fill="none"/>

    <!-- Berries arranged in a cluster -->
    <g>
      <circle cx="-60" cy="-30" r="38" fill="url(#berry)"/>
      <circle cx="-50" cy="-40" r="10" fill="url(#berryHi)"/>
      <path d="M -45 -65 L -50 -75" stroke="#3a2a1a" stroke-width="2" fill="none"/>

      <circle cx="20" cy="-60" r="32" fill="url(#berry)"/>
      <circle cx="28" cy="-68" r="8" fill="url(#berryHi)"/>
      <path d="M 25 -90 L 28 -100" stroke="#3a2a1a" stroke-width="2" fill="none"/>

      <circle cx="80" cy="-20" r="36" fill="url(#berry)"/>
      <circle cx="88" cy="-30" r="10" fill="url(#berryHi)"/>
      <path d="M 85 -55 L 90 -65" stroke="#3a2a1a" stroke-width="2" fill="none"/>

      <circle cx="-20" cy="40" r="42" fill="url(#berry)"/>
      <circle cx="-12" cy="30" r="11" fill="url(#berryHi)"/>
      <path d="M -15 -5 L -10 -15" stroke="#3a2a1a" stroke-width="2" fill="none"/>

      <circle cx="60" cy="60" r="36" fill="url(#berry)"/>
      <circle cx="68" cy="50" r="10" fill="url(#berryHi)"/>
      <path d="M 65 25 L 70 15" stroke="#3a2a1a" stroke-width="2" fill="none"/>

      <circle cx="-70" cy="80" r="30" fill="url(#berry)"/>
      <circle cx="-62" cy="72" r="8" fill="url(#berryHi)"/>

      <circle cx="20" cy="130" r="34" fill="url(#berry)"/>
      <circle cx="28" cy="120" r="9" fill="url(#berryHi)"/>

      <circle cx="-110" cy="0" r="26" fill="url(#berry)"/>
      <circle cx="110" cy="100" r="28" fill="url(#berry)"/>
      <circle cx="0" cy="-110" r="24" fill="url(#berry)"/>
    </g>
  </g>

  <!-- Brand mark top center (logo ORAVANY fidèle) -->
  <g transform="translate(400 90)" opacity="0.9">
    <g stroke="#8B6B2E" stroke-width="1.5" fill="none" stroke-linecap="round">
      <ellipse cx="0" cy="-15" rx="6" ry="16"/>
      <ellipse cx="0" cy="15" rx="6" ry="16"/>
      <ellipse cx="-15" cy="0" rx="16" ry="6"/>
      <ellipse cx="15" cy="0" rx="16" ry="6"/>
    </g>
    <g fill="#8B6B2E">
      <circle cx="0" cy="-38" r="1.8"/>
      <circle cx="0" cy="38" r="1.8"/>
      <circle cx="-38" cy="0" r="1.8"/>
      <circle cx="38" cy="0" r="1.8"/>
    </g>
  </g>

  <!-- Caption -->
  <text x="400" y="700" text-anchor="middle" fill="#8B6B2E" font-family="serif" font-size="28" letter-spacing="6">POIVRE SAUVAGE</text>
  <text x="400" y="730" text-anchor="middle" fill="#8B6B2E" font-family="serif" font-size="14" font-style="italic" opacity="0.75">Piper borbonense</text>
  <line x1="350" y1="755" x2="450" y2="755" stroke="#8B6B2E" stroke-width="1" opacity="0.6"/>
</svg>
