<svg xmlns="http://www.w3.org/2000/svg" viewBox="0 0 800 800" width="800" height="800">
  <defs>
    <radialGradient id="gbg" cx="50%" cy="40%" r="70%">
      <stop offset="0%" stop-color="#4a3320"/>
      <stop offset="100%" stop-color="#1f1408"/>
    </radialGradient>
    <linearGradient id="clove" x1="0" y1="0" x2="0" y2="1">
      <stop offset="0%" stop-color="#5a3a18"/>
      <stop offset="100%" stop-color="#2a1808"/>
    </linearGradient>
  </defs>
  <rect width="800" height="800" fill="url(#gbg)"/>

  <!-- Background dots -->
  <g fill="#8B6B2E" opacity="0.12">
    <circle cx="120" cy="150" r="2"/>
    <circle cx="680" cy="200" r="2"/>
    <circle cx="100" cy="650" r="2"/>
    <circle cx="700" cy="600" r="2"/>
  </g>

  <!-- Cloves cluster -->
  <g transform="translate(400 400)">
    <!-- Clove 1 (big center) -->
    <g transform="rotate(-15)">
      <!-- Stem -->
      <rect x="-6" y="-130" width="12" height="100" rx="2" fill="url(#clove)"/>
      <!-- Bud (4 petals) -->
      <g transform="translate(0 -30)">
        <ellipse cx="-10" cy="0" rx="14" ry="22" fill="url(#clove)"/>
        <ellipse cx="10" cy="0" rx="14" ry="22" fill="url(#clove)"/>
        <ellipse cx="0" cy="-10" rx="22" ry="14" fill="url(#clove)"/>
        <circle cx="0" cy="0" r="6" fill="#1a0d04"/>
      </g>
    </g>

    <!-- Clove 2 -->
    <g transform="rotate(35) translate(60 -20)">
      <rect x="-5" y="-110" width="10" height="80" rx="2" fill="url(#clove)" opacity="0.9"/>
      <g transform="translate(0 -28)">
        <ellipse cx="-9" cy="0" rx="12" ry="20" fill="url(#clove)"/>
        <ellipse cx="9" cy="0" rx="12" ry="20" fill="url(#clove)"/>
        <ellipse cx="0" cy="-9" rx="20" ry="12" fill="url(#clove)"/>
        <circle cx="0" cy="0" r="5" fill="#1a0d04"/>
      </g>
    </g>

    <!-- Clove 3 -->
    <g transform="rotate(-55) translate(-50 -10)">
      <rect x="-5" y="-110" width="10" height="80" rx="2" fill="url(#clove)" opacity="0.9"/>
      <g transform="translate(0 -28)">
        <ellipse cx="-9" cy="0" rx="12" ry="20" fill="url(#clove)"/>
        <ellipse cx="9" cy="0" rx="12" ry="20" fill="url(#clove)"/>
        <ellipse cx="0" cy="-9" rx="20" ry="12" fill="url(#clove)"/>
        <circle cx="0" cy="0" r="5" fill="#1a0d04"/>
      </g>
    </g>

    <!-- Clove 4 -->
    <g transform="rotate(110) translate(40 0)">
      <rect x="-4" y="-90" width="8" height="65" rx="2" fill="url(#clove)" opacity="0.8"/>
      <g transform="translate(0 -22)">
        <ellipse cx="-7" cy="0" rx="10" ry="16" fill="url(#clove)" opacity="0.9"/>
        <ellipse cx="7" cy="0" rx="10" ry="16" fill="url(#clove)" opacity="0.9"/>
        <ellipse cx="0" cy="-7" rx="16" ry="10" fill="url(#clove)" opacity="0.9"/>
      </g>
    </g>

    <!-- Clove 5 -->
    <g transform="rotate(-110) translate(-30 -20)">
      <rect x="-4" y="-90" width="8" height="65" rx="2" fill="url(#clove)" opacity="0.8"/>
      <g transform="translate(0 -22)">
        <ellipse cx="-7" cy="0" rx="10" ry="16" fill="url(#clove)" opacity="0.9"/>
        <ellipse cx="7" cy="0" rx="10" ry="16" fill="url(#clove)" opacity="0.9"/>
        <ellipse cx="0" cy="-7" rx="16" ry="10" fill="url(#clove)" opacity="0.9"/>
      </g>
    </g>
  </g>

  <!-- Brand mark (croix florale ORAVANY) -->
  <g transform="translate(400 90)" opacity="0.9">
    <g stroke="#d4b87a" stroke-width="1.8" fill="none" stroke-linecap="round" stroke-linejoin="round">
      <ellipse cx="0" cy="-18" rx="7" ry="18"/>
      <ellipse cx="0" cy="18" rx="7" ry="18"/>
      <ellipse cx="-18" cy="0" rx="18" ry="7"/>
      <ellipse cx="18" cy="0" rx="18" ry="7"/>
    </g>
    <g fill="#d4b87a">
      <circle cx="0" cy="-44" r="2"/>
      <circle cx="0" cy="44" r="2"/>
      <circle cx="-44" cy="0" r="2"/>
      <circle cx="44" cy="0" r="2"/>
    </g>
  </g>

  <text x="400" y="700" text-anchor="middle" fill="#d4b87a" font-family="serif" font-size="28" letter-spacing="6">CLOU DE GIROFLE</text>
  <text x="400" y="730" text-anchor="middle" fill="#d4b87a" font-family="serif" font-size="14" font-style="italic" opacity="0.75">Syzygium aromaticum</text>
  <line x1="350" y1="755" x2="450" y2="755" stroke="#d4b87a" stroke-width="1" opacity="0.6"/>
</svg>
